<?xml version="1.0" encoding="utf-8"?>
<!-- Uploaded to: SVG Repo, www.svgrepo.com, Generator: SVG Repo Mixer Tools -->
<svg width="800px" height="800px" viewBox="0 -71.99 367.672 367.672" xmlns="http://www.w3.org/2000/svg">
  <g id="Group_25" data-name="Group 25" transform="translate(-2804.164 -310.937)">
    <g id="Group_24" data-name="Group 24">
      <path id="Path_120" data-name="Path 120" d="M2930.3,386.979h45a1.5,1.5,0,0,1,1.5,1.5v65.993h-3V389.979h-42v85.654h-1.08v11.428l-1.92-.957V388.479A1.5,1.5,0,0,1,2930.3,386.979Z" fill="#1a1818" fill-rule="evenodd"/>
      <path id="Path_121" data-name="Path 121" d="M2964.975,353.667l44.925-42.324a1.5,1.5,0,0,1,2.522,1.09h0V430.017l-3-3.677V315.9l-42,39.567v99h-1.838l-1.162,1.571V354.826A1.5,1.5,0,0,1,2964.975,353.667Z" fill="#1a1818" fill-rule="evenodd"/>
      <path id="Path_122" data-name="Path 122" d="M3001.827,391.971l13.88-16.976.066-.075,13.862-17.06a1.5,1.5,0,0,1,2.1-.217,1.461,1.461,0,0,1,.228.229L3045.882,375l0,0,13.91,17.014a1.5,1.5,0,0,1,.339.949h0V458.8h-3v-65.3l-13.57-16.6,0,0,0,0L3030.8,361.174,3018.1,376.8c-.022.031-.045.061-.07.091l-13.57,16.6v33.426l-3,3.677V392.958A1.5,1.5,0,0,1,3001.827,391.971Z" fill="#1a1818" fill-rule="evenodd"/>
      <path id="Path_123" data-name="Path 123" d="M3049.306,432.746h28.083V421.11a1.5,1.5,0,0,1,1.5-1.5h24.376a1.5,1.5,0,0,1,1.5,1.5v48.634l-3-3.463V422.61h-21.376v11.636a1.5,1.5,0,0,1-1.5,1.5h-28.083V458.8h-1.58v-8.4h-1.42V434.246A1.5,1.5,0,0,1,3049.306,432.746Z" fill="#1a1818" fill-rule="evenodd"/>
      <path id="Path_124" data-name="Path 124" d="M3090.61,402.741h6.937v-9.629a1.5,1.5,0,0,1,1.5-1.5h32.468a1.5,1.5,0,0,1,1.5,1.5v9.629h6.937a1.5,1.5,0,0,1,1.5,1.5v73.015l-1.179-1.12v31.715a1.549,1.549,0,0,1-.321.034h-.007V465.852l-1.493,1.418V405.741h-6.937a1.5,1.5,0,0,1-1.5-1.5v-9.629h-29.468v9.629a1.5,1.5,0,0,1-1.5,1.5h-6.938V458.8h-3V404.241A1.5,1.5,0,0,1,3090.61,402.741Z" fill="#1a1818" fill-rule="evenodd"/>
      <path id="Path_125" data-name="Path 125" d="M2884.368,427.781h58.719a1.5,1.5,0,0,1,1.5,1.5v9.274a1.5,1.5,0,0,1-1.5,1.5h-4.125v35.578h-3V438.555a1.5,1.5,0,0,1,1.5-1.5h4.125v-6.274h-61.343v6.274h4.124a1.5,1.5,0,0,1,1.5,1.5v48.786l-3,1.5V440.055h-4.125a1.5,1.5,0,0,1-1.5-1.5v-9.274a1.5,1.5,0,0,1,1.5-1.5Z" fill="#1a1818" fill-rule="evenodd"/>
      <path id="Path_126" data-name="Path 126" d="M2852.964,371.339h5.4v-8.828a1.5,1.5,0,0,1,1.5-1.5h5.061v-5.456a1.5,1.5,0,0,1,1.5-1.5h4.372V316.839a1.5,1.5,0,0,1,1.5-1.5h6.328a1.5,1.5,0,0,1,1.5,1.5v37.216h4.372a1.5,1.5,0,0,1,1.5,1.5v5.456h5.061a1.5,1.5,0,0,1,1.5,1.5v8.828h5.4a1.5,1.5,0,0,1,1.5,1.5V480.532l-3,1.5V374.34h-5.4a1.5,1.5,0,0,1-1.5-1.5v-8.829H2884.5a1.5,1.5,0,0,1-1.5-1.5v-5.456h-4.371a1.5,1.5,0,0,1-1.5-1.5V318.34H2873.8v37.215a1.5,1.5,0,0,1-1.5,1.5h-4.372v5.456a1.5,1.5,0,0,1-1.5,1.5h-5.061v8.829a1.5,1.5,0,0,1-1.5,1.5h-5.4v88.509l-3-2.4V372.84A1.5,1.5,0,0,1,2852.964,371.339Z" fill="#1a1818" fill-rule="evenodd"/>
    </g>
    <path id="Path_127" data-name="Path 127" d="M2872.922,486.2v46.928a1.5,1.5,0,0,1-1.5,1.5h-60.084a1.5,1.5,0,0,1-1.5-1.5V486.2h-4.149a1.5,1.5,0,0,1-1.5-1.5v-3.481a1.506,1.506,0,0,1,.661-1.536l17.74-14.182,17.859-14.276a1.492,1.492,0,0,1,1.887.019L2860.17,465.5l17.858,14.276a1.489,1.489,0,0,1,.543,1.4V484.7a1.5,1.5,0,0,1-1.5,1.5Zm-3,45.428V484.7a1.5,1.5,0,0,1,1.5-1.5h4.149v-1.566l-17.264-13.8L2841.38,454.3l-16.927,13.532-17.264,13.8V483.2h4.149a1.5,1.5,0,0,1,1.5,1.5v46.928Z" fill="#1a1818" fill-rule="evenodd"/>
    <path id="Path_128" data-name="Path 128" d="M2862.22,497.516l45.628-22.855a1.494,1.494,0,0,1,1.334,0l0-.005,20.04,9.984v-9.006a1.5,1.5,0,0,1,1.5-1.5h9.623a1.5,1.5,0,0,1,1.5,1.5v15.329l13.1,6.616a1.5,1.5,0,0,1,.823,1.336h0v34.214a1.5,1.5,0,0,1-1.5,1.5h-91.505a1.5,1.5,0,0,1-1.5-1.5V498.914a1.5,1.5,0,0,1,.956-1.4Zm46.292-19.846-44.248,22.164v31.794h88.505V499.833l-13-6.567a1.5,1.5,0,0,1-.924-1.385V477.133h-6.623v9.928h0a1.5,1.5,0,0,1-2.167,1.342Z" fill="#1a1818" fill-rule="evenodd"/>
    <path id="Path_129" data-name="Path 129" d="M3019.553,531.628h87.25V483.011a1.5,1.5,0,0,1,1.5-1.5h3.087v-1.839L3094.6,460.3h-45.374a1.5,1.5,0,0,1-1.5-1.5v-6.9H3041.1v6.9a1.5,1.5,0,0,1-1.5,1.5h-7.727l-16.91,19.378v1.837h3.087a1.5,1.5,0,0,1,1.5,1.5v48.617Zm88.75,3h-90.25a1.5,1.5,0,0,1-1.5-1.5V484.511h-3.087a1.5,1.5,0,0,1-1.5-1.5V479.12h0a1.487,1.487,0,0,1,.37-.985l17.651-20.228a1.5,1.5,0,0,1,1.209-.611h6.9v-6.9a1.5,1.5,0,0,1,1.5-1.5h9.623a1.5,1.5,0,0,1,1.5,1.5v6.9h44.553v.005a1.49,1.49,0,0,1,1.131.517l17.535,20.235a1.5,1.5,0,0,1,.445,1.067v3.891a1.5,1.5,0,0,1-1.5,1.5H3109.8v48.617A1.5,1.5,0,0,1,3108.3,534.628Z" fill="#1a1818" fill-rule="evenodd"/>
    <path id="Path_130" data-name="Path 130" d="M3099.343,502.363l39.571-37.6a1.5,1.5,0,0,1,2.528,1.084h0v67.276a1.5,1.5,0,0,1-1.5,1.5H3100.3a1.5,1.5,0,0,1-1.5-1.5V503.517a1.494,1.494,0,0,1,.543-1.154Zm39.1-33.021L3101.8,504.157v27.471h36.645Z" fill="#1a1818" fill-rule="evenodd"/>
    <path id="Path_131" data-name="Path 131" d="M3168.836,505.336l-27.062-25.711v52h27.062V505.336ZM3141.3,475.051l29.989,28.491a1.5,1.5,0,0,1,.542,1.155v28.431a1.5,1.5,0,0,1-1.5,1.5h-30.062a1.5,1.5,0,0,1-1.5-1.5V476.136h0a1.5,1.5,0,0,1,2.528-1.085Z" fill="#1a1818" fill-rule="evenodd"/>
    <path id="Path_132" data-name="Path 132" d="M2949.422,531.628h75.041V447.134l-17.286-21.183-17.289,21.183v7.338a1.5,1.5,0,0,1-1.5,1.5H2966.34l-16.918,22.864v52.792Zm38.966,3h-40.466a1.5,1.5,0,0,1-1.5-1.5V478.349h0a1.483,1.483,0,0,1,.294-.891l17.6-23.782a1.5,1.5,0,0,1,1.272-.7h21.3v-6.365h.005a1.482,1.482,0,0,1,.335-.944l18.78-23.011a1.467,1.467,0,0,1,.226-.227,1.5,1.5,0,0,1,2.1.217l18.71,22.928a1.5,1.5,0,0,1,.415,1.037v86.521a1.5,1.5,0,0,1-1.5,1.5h-37.575Z" fill="#1a1818" fill-rule="evenodd"/>
  </g>
</svg>